<svg width="52" height="53" viewBox="0 0 52 53" fill="none" xmlns="http://www.w3.org/2000/svg">
<rect x="3.5" y="3.81543" width="45" height="45" rx="4.5" fill="#3B82F6"/>
<path fill-rule="evenodd" clip-rule="evenodd" d="M26 36.7154C28.7583 36.7154 31.4035 35.6197 33.3539 33.6693C35.3043 31.7189 36.4 29.0737 36.4 26.3154C36.4 23.5572 35.3043 20.9119 33.3539 18.9615C31.4035 17.0111 28.7583 15.9154 26 15.9154C23.2418 15.9154 20.5965 17.0111 18.6461 18.9615C16.6957 20.9119 15.6 23.5572 15.6 26.3154C15.6 29.0737 16.6957 31.7189 18.6461 33.6693C20.5965 35.6197 23.2418 36.7154 26 36.7154ZM22.1 25.0154C22.4448 25.0154 22.7754 24.8784 23.0192 24.6346C23.263 24.3908 23.4 24.0602 23.4 23.7154C23.4 23.3706 23.263 23.04 23.0192 22.7962C22.7754 22.5524 22.4448 22.4154 22.1 22.4154C21.7552 22.4154 21.4246 22.5524 21.1808 22.7962C20.937 23.04 20.8 23.3706 20.8 23.7154C20.8 24.0602 20.937 24.3908 21.1808 24.6346C21.4246 24.8784 21.7552 25.0154 22.1 25.0154ZM31.2 23.7154C31.2 24.0602 31.063 24.3908 30.8192 24.6346C30.5754 24.8784 30.2448 25.0154 29.9 25.0154C29.5552 25.0154 29.2246 24.8784 28.9808 24.6346C28.737 24.3908 28.6 24.0602 28.6 23.7154C28.6 23.3706 28.737 23.04 28.9808 22.7962C29.2246 22.5524 29.5552 22.4154 29.9 22.4154C30.2448 22.4154 30.5754 22.5524 30.8192 22.7962C31.063 23.04 31.2 23.3706 31.2 23.7154ZM30.5968 30.9109C30.7175 30.7901 30.8132 30.6467 30.8785 30.489C30.9438 30.3312 30.9774 30.1621 30.9773 29.9913C30.9773 29.8206 30.9436 29.6515 30.8782 29.4938C30.8128 29.3361 30.7169 29.1928 30.5962 29.0721C30.4754 28.9514 30.332 28.8556 30.1742 28.7903C30.0164 28.7251 29.8474 28.6915 29.6766 28.6915C29.5058 28.6916 29.3368 28.7253 29.179 28.7907C29.0213 28.8561 28.878 28.9519 28.7573 29.0727C28.0259 29.8038 27.0341 30.2146 26 30.2146C24.9659 30.2146 23.9741 29.8038 23.2427 29.0727C22.9989 28.8288 22.6683 28.6917 22.3234 28.6915C21.9786 28.6914 21.6478 28.8283 21.4039 29.0721C21.1599 29.3158 21.0228 29.6465 21.0227 29.9913C21.0226 30.3362 21.1594 30.667 21.4032 30.9109C22.0068 31.5147 22.7234 31.9936 23.5122 32.3204C24.3009 32.6471 25.1463 32.8153 26 32.8153C26.8537 32.8153 27.6991 32.6471 28.4878 32.3204C29.2766 31.9936 29.9932 31.5147 30.5968 30.9109Z" fill="white"/>
<rect x="3.5" y="3.81543" width="45" height="45" rx="4.5" stroke="white" stroke-width="3"/>
<rect x="1" y="1.31543" width="50" height="50" rx="5" stroke="#C3DDFD" stroke-width="2"/>
</svg>
