<svg width="48" height="49" viewBox="0 0 48 49" fill="none" xmlns="http://www.w3.org/2000/svg">
<rect x="1.5" y="1.81543" width="45" height="45" rx="4.5" fill="#3B82F6"/>
<path d="M22.7 13.9154C22.0104 13.9154 21.3491 14.1893 20.8615 14.6769C20.3739 15.1645 20.1 15.8258 20.1 16.5154V26.9154C20.1 27.605 20.3739 28.2663 20.8615 28.7539C21.3491 29.2415 22.0104 29.5154 22.7 29.5154H30.5C31.1895 29.5154 31.8509 29.2415 32.3385 28.7539C32.826 28.2663 33.1 27.605 33.1 26.9154V19.6536C33.0998 18.9641 32.8258 18.3029 32.3382 17.8154L29.2 14.6772C28.7125 14.1896 28.0513 13.9156 27.3618 13.9154H22.7Z" fill="white"/>
<path d="M14.9 21.7154C14.9 21.0259 15.174 20.3645 15.6615 19.8769C16.1491 19.3893 16.8105 19.1154 17.5 19.1154V32.1154H27.9C27.9 32.805 27.6261 33.4663 27.1385 33.9539C26.6509 34.4415 25.9896 34.7154 25.3 34.7154H17.5C16.8105 34.7154 16.1491 34.4415 15.6615 33.9539C15.174 33.4663 14.9 32.805 14.9 32.1154V21.7154Z" fill="white"/>
<rect x="1.5" y="1.81543" width="45" height="45" rx="4.5" stroke="white" stroke-width="3"/>
</svg>
