<svg width="52" height="53" viewBox="0 0 52 53" fill="none" xmlns="http://www.w3.org/2000/svg">
<rect x="3.5" y="3.81543" width="45" height="45" rx="4.5" fill="#3B82F6"/>
<path fill-rule="evenodd" clip-rule="evenodd" d="M26 15.9154C25.6552 15.9154 25.3245 16.0524 25.0807 16.2962C24.8369 16.54 24.7 16.8706 24.7 17.2154V18.5154C24.7 18.8602 24.8369 19.1908 25.0807 19.4346C25.3245 19.6784 25.6552 19.8154 26 19.8154C26.3448 19.8154 26.6754 19.6784 26.9192 19.4346C27.163 19.1908 27.3 18.8602 27.3 18.5154V17.2154C27.3 16.8706 27.163 16.54 26.9192 16.2962C26.6754 16.0524 26.3448 15.9154 26 15.9154ZM18.2 18.5154H22.1C22.1 19.5497 22.5109 20.5417 23.2423 21.2731C23.9737 22.0045 24.9656 22.4154 26 22.4154C27.0343 22.4154 28.0263 22.0045 28.7577 21.2731C29.4891 20.5417 29.9 19.5497 29.9 18.5154H33.8C34.4895 18.5154 35.1509 18.7893 35.6385 19.2769C36.126 19.7645 36.4 20.4258 36.4 21.1154V32.8154C36.4 33.505 36.126 34.1663 35.6385 34.6539C35.1509 35.1415 34.4895 35.4154 33.8 35.4154H18.2C17.5104 35.4154 16.8491 35.1415 16.3615 34.6539C15.8739 34.1663 15.6 33.505 15.6 32.8154V21.1154C15.6 20.4258 15.8739 19.7645 16.3615 19.2769C16.8491 18.7893 17.5104 18.5154 18.2 18.5154ZM21.45 27.6154C21.9671 27.6154 22.4631 27.41 22.8288 27.0443C23.1945 26.6786 23.4 26.1826 23.4 25.6654C23.4 25.1482 23.1945 24.6522 22.8288 24.2865C22.4631 23.9209 21.9671 23.7154 21.45 23.7154C20.9328 23.7154 20.4368 23.9209 20.0711 24.2865C19.7054 24.6522 19.5 25.1482 19.5 25.6654C19.5 26.1826 19.7054 26.6786 20.0711 27.0443C20.4368 27.41 20.9328 27.6154 21.45 27.6154ZM24.635 32.8154C24.7308 32.3434 24.7206 31.856 24.6049 31.3884C24.4893 30.9208 24.2712 30.4848 23.9664 30.1119C23.6615 29.739 23.2777 29.4385 22.8425 29.2321C22.4073 29.0257 21.9316 28.9187 21.45 28.9187C20.9683 28.9187 20.4927 29.0257 20.0575 29.2321C19.6223 29.4385 19.2384 29.739 18.9336 30.1119C18.6288 30.4848 18.4107 30.9208 18.295 31.3884C18.1794 31.856 18.1691 32.3434 18.265 32.8154H24.635ZM28.6 25.0154C28.2552 25.0154 27.9245 25.1524 27.6807 25.3962C27.4369 25.64 27.3 25.9706 27.3 26.3154C27.3 26.6602 27.4369 26.9908 27.6807 27.2346C27.9245 27.4784 28.2552 27.6154 28.6 27.6154H32.5C32.8448 27.6154 33.1754 27.4784 33.4192 27.2346C33.663 26.9908 33.8 26.6602 33.8 26.3154C33.8 25.9706 33.663 25.64 33.4192 25.3962C33.1754 25.1524 32.8448 25.0154 32.5 25.0154H28.6ZM27.3 30.2154C27.3 29.8706 27.4369 29.54 27.6807 29.2962C27.9245 29.0524 28.2552 28.9154 28.6 28.9154H31.2C31.5448 28.9154 31.8754 29.0524 32.1192 29.2962C32.363 29.54 32.5 29.8706 32.5 30.2154C32.5 30.5602 32.363 30.8908 32.1192 31.1346C31.8754 31.3784 31.5448 31.5154 31.2 31.5154H28.6C28.2552 31.5154 27.9245 31.3784 27.6807 31.1346C27.4369 30.8908 27.3 30.5602 27.3 30.2154Z" fill="white"/>
<rect x="3.5" y="3.81543" width="45" height="45" rx="4.5" stroke="white" stroke-width="3"/>
<rect x="1.5" y="1.81543" width="49" height="49" rx="4.5" stroke="#C3DDFD" stroke-width="3"/>
</svg>
