<svg width="103" height="33" viewBox="0 0 103 33" fill="none" xmlns="http://www.w3.org/2000/svg">
<g clip-path="url(#clip0_5003_11267)">
<path d="M7.83936 29.8179C6.57167 28.9752 5.43165 27.9535 4.45442 26.7846C4.45325 26.7822 4.45264 26.7795 4.45264 26.7768C4.45264 26.7741 4.45325 26.7715 4.45442 26.769C4.94927 27.3632 5.4868 27.9203 6.06271 28.4357C6.62187 28.9377 7.21555 29.3996 7.83936 29.8179Z" fill="#2C658C"/>
<path d="M9.13086 30.5956C8.68735 30.3588 8.25628 30.0992 7.83936 29.8179C8.25878 30.0964 8.68928 30.3556 9.13086 30.5956Z" fill="#2C658C"/>
<path d="M20.1763 26.4998C20.1765 26.8446 20.1543 27.189 20.1098 27.5309C20.0921 27.6709 20.0699 27.8087 20.0433 27.9464C18.0676 28.5704 15.9641 28.6685 13.9391 28.231C11.9142 27.7935 10.0374 26.8354 8.49291 25.4509C7.35015 24.4288 6.41253 23.197 5.73047 21.822C6.71601 20.4496 8.1098 19.4259 9.71164 18.8979C11.3135 18.3698 13.0409 18.3647 14.6459 18.8832C16.2508 19.4016 17.6507 20.417 18.6443 21.7835C19.6379 23.15 20.1743 24.7973 20.1763 26.4887V26.4998Z" fill="#1A56DB"/>
<path d="M13.7453 0.729004C13.4839 0.773448 13.2225 0.824559 12.9655 0.884559C13.2225 0.826782 13.4817 0.775671 13.7453 0.729004ZM12.4516 1.009C12.1104 1.09567 11.7737 1.19567 11.4414 1.30678C11.7737 1.19789 12.106 1.09789 12.4516 1.009ZM10.9474 1.48011C10.6196 1.60012 10.2983 1.729 9.98156 1.87345C10.2983 1.73345 10.6218 1.60234 10.9474 1.48011ZM23.3064 2.05123C24.937 2.8351 26.4231 3.89082 27.7015 5.17345C26.4214 3.89273 24.9328 2.84059 23.2998 2.06234L23.3064 2.05123ZM30.1738 8.349C30.1914 8.37236 30.2063 8.39772 30.2181 8.42456C30.331 8.61123 30.4396 8.80011 30.5371 8.99123C30.588 9.08678 30.639 9.18234 30.6877 9.28011C30.5415 8.98678 30.3886 8.69789 30.2247 8.41789C30.2113 8.39195 30.1965 8.36673 30.1804 8.34234L30.1738 8.349ZM1.58789 22.3134C2.78112 25.3772 4.88668 27.9977 7.61786 29.8179C6.99557 29.3994 6.40338 28.9375 5.84564 28.4357C5.26973 27.9202 4.7322 27.3632 4.23736 26.769C3.11951 25.4375 2.2247 23.9328 1.58789 22.3134ZM31.2725 22.4223C31.1352 22.766 30.9875 23.1038 30.8295 23.4357C30.9919 23.1038 31.1396 22.766 31.2725 22.4223ZM27.9275 27.6023C27.7059 27.8246 27.4844 28.0468 27.2629 28.2579L27.1964 28.3268C27.4519 28.0942 27.6971 27.8527 27.9319 27.6023H27.9275ZM27.1721 28.3446C26.842 28.6446 26.5075 28.9334 26.142 29.2046L26.2284 29.2912L27.1721 28.3446ZM26.1353 29.2023C25.8828 29.3964 25.6258 29.5831 25.3644 29.7623C25.628 29.5868 25.885 29.4001 26.1375 29.2046L26.1353 29.2023ZM7.61786 29.8179C8.03478 30.0992 8.46585 30.3588 8.90936 30.5957C8.46631 30.3557 8.03581 30.0964 7.61786 29.8179ZM25.0986 29.9401C24.5626 30.2881 24.0063 30.6035 23.4327 30.8846C24.0072 30.6052 24.5636 30.2898 25.0986 29.9401Z" fill="#3B82F6"/>
<path d="M13.7453 0.729004C13.4839 0.773448 13.2225 0.824559 12.9655 0.884559C13.2225 0.826782 13.4817 0.775671 13.7453 0.729004ZM12.4516 1.009C12.1104 1.09567 11.7737 1.19567 11.4414 1.30678C11.7737 1.19789 12.106 1.09789 12.4516 1.009ZM10.9474 1.48011C10.6196 1.60012 10.2983 1.729 9.98156 1.87345C10.2983 1.73345 10.6218 1.60234 10.9474 1.48011ZM23.3064 2.05123C24.937 2.8351 26.4231 3.89082 27.7015 5.17345C26.4214 3.89273 24.9328 2.84059 23.2998 2.06234L23.3064 2.05123ZM30.1738 8.349C30.1914 8.37236 30.2063 8.39772 30.2181 8.42456C30.331 8.61123 30.4396 8.80011 30.5371 8.99123C30.588 9.08678 30.639 9.18234 30.6877 9.28011C30.5415 8.98678 30.3886 8.69789 30.2247 8.41789C30.2113 8.39195 30.1965 8.36673 30.1804 8.34234L30.1738 8.349ZM1.58789 22.3134C2.78112 25.3772 4.88668 27.9977 7.61786 29.8179C6.99557 29.3994 6.40338 28.9375 5.84564 28.4357C5.26973 27.9202 4.7322 27.3632 4.23736 26.769C3.11951 25.4375 2.2247 23.9328 1.58789 22.3134ZM31.2725 22.4223C31.1352 22.766 30.9875 23.1038 30.8295 23.4357C30.9919 23.1038 31.1396 22.766 31.2725 22.4223ZM27.9275 27.6023C27.7059 27.8246 27.4844 28.0468 27.2629 28.2579L27.1964 28.3268C27.4519 28.0942 27.6971 27.8527 27.9319 27.6023H27.9275ZM26.1398 29.2023C25.8872 29.3964 25.6302 29.5831 25.3688 29.7623C25.6325 29.5868 25.8894 29.4001 26.142 29.2046L26.1398 29.2023ZM7.61786 29.8179C8.03478 30.0992 8.46585 30.3588 8.90936 30.5957C8.46631 30.3557 8.03581 30.0964 7.61786 29.8179ZM25.0986 29.9401C24.5626 30.2881 24.0063 30.6035 23.4327 30.8846C24.0072 30.6052 24.5636 30.2898 25.0986 29.9401Z" fill="#3B82F6"/>
<path d="M16.4508 0.5C15.9531 0.5 15.4591 0.522963 14.9688 0.568889C14.8602 0.568889 14.7472 0.588889 14.6453 0.602222L14.3995 0.631111L14.1093 0.673333C13.9874 0.688889 13.8656 0.708889 13.7459 0.728889C13.4823 0.775555 13.2231 0.826667 12.9662 0.884444L12.707 0.944444L12.4522 1.00889C12.1111 1.09778 11.7744 1.19778 11.4421 1.30667C11.2759 1.36222 11.112 1.42 10.9481 1.48C10.6224 1.60222 10.299 1.73333 9.9822 1.87333C9.76067 1.97556 9.53914 2.08222 9.31762 2.19556L9.03628 2.33778C8.90779 2.40444 8.78374 2.47333 8.65747 2.54444C8.53119 2.61556 8.43594 2.66444 8.34068 2.72667C8.24542 2.78889 8.14131 2.84889 8.04162 2.91111C7.82009 3.04889 7.59857 3.19333 7.37704 3.34222L7.20203 3.46444C7.06247 3.56444 6.92512 3.66667 6.78778 3.77111L6.67037 3.86222C6.20088 4.22811 5.75197 4.61983 5.3257 5.03556C5.19499 5.16222 5.06651 5.29333 4.94024 5.42444C4.81397 5.55556 4.7032 5.67778 4.58579 5.80667L4.55478 5.84222C4.46617 5.94 4.37977 6.04 4.29559 6.14L4.2092 6.24222C4.094 6.38 3.98767 6.52 3.87026 6.66444C3.75285 6.80889 3.69526 6.88667 3.61107 7.00889C3.59114 7.03333 3.5712 7.06 3.55348 7.08667C3.52418 7.12374 3.49682 7.16231 3.47151 7.20222C3.38733 7.31778 3.30537 7.42444 3.22562 7.55333L3.20568 7.58222C3.12593 7.70222 3.04618 7.82444 2.96865 7.94889L2.92656 8.01333L2.89554 8.06444L2.87782 8.09333C2.79807 8.22444 2.71832 8.35333 2.643 8.48667C2.56768 8.62 2.49236 8.74889 2.42147 8.88222L2.36831 8.98444L2.20216 9.30444C2.14678 9.41111 2.09361 9.52667 2.04266 9.62889C1.96513 9.79111 1.88759 9.95556 1.82113 10.1222C1.78348 10.2089 1.74803 10.2956 1.71259 10.3822C1.63062 10.58 1.55087 10.78 1.47555 10.9822C1.45783 11.0333 1.44232 11.0822 1.4246 11.1311L1.29833 11.4933C1.25846 11.6133 1.2208 11.7356 1.18314 11.8578C1.14548 11.98 1.12997 12.0356 1.1056 12.1244C1.05465 12.3022 1.00591 12.4822 0.961609 12.6644C0.939456 12.7533 0.919519 12.8444 0.897366 12.9356L0.839769 13.2267C0.822047 13.3178 0.80211 13.4089 0.784387 13.5022C0.766665 13.5933 0.751158 13.6867 0.735651 13.78C0.720145 13.8733 0.704638 13.9667 0.689131 14.06C0.673624 14.16 0.660332 14.2578 0.647041 14.3578C0.633749 14.4578 0.618242 14.5356 0.618242 14.6222C0.618242 14.6489 0.618242 14.6778 0.607166 14.7067C0.607166 14.7933 0.587228 14.8822 0.580582 14.9689C0.560645 15.1711 0.545138 15.3733 0.534062 15.5778C0.534062 15.6511 0.534062 15.7244 0.534062 15.8C0.534062 16.0222 0.518555 16.2667 0.518555 16.5022C0.518555 16.6511 0.518555 16.7978 0.518555 16.9467C0.518555 17.0956 0.518555 17.24 0.536277 17.3911C0.536277 17.5044 0.549569 17.6133 0.55843 17.7267C0.55843 17.8022 0.55843 17.8778 0.576152 17.9489C0.593874 18.02 0.596089 18.1511 0.607166 18.2533C0.606083 18.2592 0.606083 18.2652 0.607166 18.2711C0.620457 18.4022 0.635964 18.5356 0.655902 18.6667C0.654939 18.6792 0.654939 18.6919 0.655902 18.7044C0.673624 18.8422 0.695776 18.9778 0.717929 19.1156C0.740082 19.2533 0.766665 19.3978 0.793248 19.5378C0.819832 19.6778 0.84863 19.8178 0.879644 19.9578C0.939456 20.2356 1.00813 20.5111 1.08345 20.7822C1.15877 21.0533 1.24516 21.3378 1.33599 21.6111C1.42682 21.8844 1.50435 22.0911 1.58853 22.3133C2.22506 23.9284 3.11832 25.4294 4.23357 26.7578C4.72841 27.3519 5.26594 27.909 5.84185 28.4244C6.39959 28.9263 6.99179 29.3881 7.61407 29.8067C8.0335 30.0852 8.464 30.3444 8.90558 30.5844L9.24008 30.76L9.58123 30.9289C9.69421 30.9844 9.80276 31.0378 9.9246 31.0889L10.0044 31.1244C10.093 31.1644 10.1816 31.2044 10.2724 31.24L10.3588 31.2756L10.5692 31.3622L10.6246 31.3844L10.9813 31.52L11.0522 31.5467L11.3889 31.6644L11.6104 31.7356L11.8807 31.82C12.0513 31.8711 12.2241 31.92 12.3968 31.9667L12.7513 32.0556C12.8709 32.0844 12.9883 32.1111 13.1079 32.1356C13.2276 32.16 13.3494 32.1867 13.469 32.2089C13.6906 32.2533 13.9276 32.2933 14.1602 32.3244C14.9173 32.4344 15.6814 32.4893 16.4464 32.4889H16.6125H17.0046C17.173 32.4889 17.3413 32.4756 17.5075 32.4644C17.729 32.4511 17.9505 32.4311 18.1721 32.4067C18.3936 32.3822 18.6638 32.3467 18.9075 32.3111C19.0515 32.2889 19.1933 32.2644 19.3351 32.2378L19.6186 32.1822L19.7671 32.1511L20.0905 32.0911C20.312 32.0422 20.5136 31.9867 20.7218 31.9289L21.0364 31.8378L21.3443 31.74L21.6523 31.6378L21.9557 31.5289C22.1573 31.4556 22.3567 31.3756 22.5539 31.3067C22.751 31.2378 22.9504 31.1356 23.1453 31.0444L23.4333 30.9067C24.007 30.6256 24.5633 30.3102 25.0992 29.9622L25.365 29.7867C25.6264 29.6059 25.8834 29.4193 26.136 29.2267C26.4926 28.9556 26.836 28.6667 27.1661 28.3667L27.186 28.3489L27.2525 28.28C27.474 28.0689 27.6955 27.8489 27.917 27.6244C27.9724 27.5689 28.0256 27.5133 28.0743 27.4578L28.1297 27.4L28.1563 27.3711L28.2648 27.2511C28.3557 27.1511 28.4443 27.0489 28.5329 26.9444H28.5462C28.668 26.7978 28.7899 26.6511 28.9095 26.5L28.9361 26.4667C29.2661 26.0489 29.5741 25.6133 29.8621 25.1644C29.9019 25.1044 29.9396 25.0444 29.9772 24.9844C30.0481 24.8711 30.1168 24.7622 30.1833 24.64C30.2497 24.5178 30.2918 24.4556 30.3428 24.3622L30.4247 24.2178C30.4528 24.1689 30.4794 24.12 30.5045 24.0711C30.6108 23.8756 30.7105 23.6778 30.808 23.4778C30.9675 23.1459 31.1152 22.8081 31.251 22.4644C31.2975 22.3489 31.3419 22.2422 31.3839 22.1178C31.426 21.9933 31.4637 21.8956 31.5014 21.7956L31.5146 21.7533C31.5523 21.6444 31.59 21.5311 31.6254 21.42C31.6631 21.3022 31.6985 21.1844 31.734 21.0667C31.7583 20.9844 31.7827 20.9 31.8048 20.8178C31.827 20.7356 31.8514 20.6444 31.8735 20.5578C31.8957 20.4711 31.9289 20.3356 31.9533 20.2333C31.9645 20.1946 31.9733 20.1553 31.9799 20.1156C31.9976 20.0378 32.0153 19.9622 32.0308 19.8933C32.0685 19.72 32.1039 19.5444 32.1327 19.3689C32.1482 19.2911 32.1593 19.2156 32.1726 19.1467C32.2014 18.9822 32.2257 18.8156 32.2457 18.6489C32.2656 18.4822 32.29 18.2844 32.3077 18.1C32.3254 17.9156 32.3387 17.7289 32.3498 17.5444L31.9776 17.8689L25.2343 24.6333L25.2144 24.6556C24.9929 24.8778 24.7714 25.1 24.5498 25.3222L24.3172 25.5311C24.1223 25.7022 23.9207 25.8689 23.7125 26.0289C21.8881 27.4303 19.6999 28.275 17.4097 28.4619C15.1194 28.6489 12.8239 28.1701 10.7977 27.083C8.77146 25.9959 7.10023 24.3464 5.98382 22.3317C4.86742 20.3169 4.35308 18.0223 4.50231 15.7221C4.65154 13.4219 5.45802 11.2136 6.82532 9.36099C8.19263 7.50843 10.0629 6.0901 12.2125 5.27559C14.3621 4.46109 16.7001 4.28487 18.9469 4.76801C21.1937 5.25114 23.2542 6.3732 24.8821 8L27.4474 5.42444L27.7022 5.16889C26.4229 3.89022 24.9368 2.83829 23.3071 2.05778C23.1985 2.00444 23.0855 1.95333 22.977 1.90444L22.6203 1.74889C22.3478 1.63333 22.0709 1.52667 21.7896 1.42667C21.6419 1.37333 21.4942 1.32222 21.3465 1.27333C21.1848 1.22222 21.0209 1.17111 20.857 1.12444L20.5956 1.05111L20.3187 0.98L20.0528 0.915556C19.6962 0.833333 19.3351 0.762222 18.9718 0.704444L18.7015 0.662222C18.5509 0.64 18.4002 0.62 18.2585 0.604445C18.0059 0.575556 17.7512 0.553333 17.4964 0.537778L17.1663 0.52L16.7897 0.504444H16.4441L16.4508 0.5Z" fill="#3B82F6"/>
<path d="M12.2012 16.5C14.4035 16.5 16.1887 14.7091 16.1887 12.5C16.1887 10.2909 14.4035 8.5 12.2012 8.5C9.999 8.5 8.21375 10.2909 8.21375 12.5C8.21375 14.7091 9.999 16.5 12.2012 16.5Z" fill="#1A56DB"/>
<path d="M30.2137 8.43115L23.7894 14.8756L20.9605 12.0556L18.1427 14.8845L20.9627 17.7134L23.7296 20.4912L26.5474 17.6623L31.853 12.3423C31.7688 12.0245 31.6736 11.7134 31.5717 11.4045C31.4986 11.1823 31.4188 10.96 31.3347 10.7512C31.2726 10.5912 31.2084 10.4334 31.1419 10.2756C31.1198 10.2267 31.0998 10.1778 31.0799 10.1289C30.9979 9.94449 30.916 9.76004 30.8296 9.58004C30.783 9.48226 30.7343 9.38449 30.6856 9.28671C30.6368 9.18893 30.5859 9.09338 30.5349 8.99782C30.433 8.80671 30.3289 8.61782 30.2159 8.43115H30.2137Z" fill="#3B82F6"/>
<path d="M30.2202 8.42464C30.3332 8.6113 30.4417 8.80019 30.5392 8.9913C30.5902 9.08686 30.6411 9.18241 30.6899 9.28019C30.5436 8.98686 30.3908 8.69797 30.2269 8.41797L30.2202 8.42464Z" fill="#3B82F6"/>
<path d="M13.7453 0.729004C13.4839 0.773448 13.2225 0.824559 12.9655 0.884559C13.2225 0.826782 13.4817 0.775671 13.7453 0.729004ZM12.4516 1.009C12.1104 1.09567 11.7737 1.19567 11.4414 1.30678C11.7737 1.19789 12.106 1.09789 12.4516 1.009ZM10.9474 1.48011C10.6196 1.60012 10.2983 1.729 9.98156 1.87345C10.2983 1.73345 10.6218 1.60234 10.9474 1.48011ZM23.3064 2.05123C24.937 2.8351 26.4231 3.89082 27.7015 5.17345C26.4214 3.89273 24.9328 2.84059 23.2998 2.06234L23.3064 2.05123ZM30.1738 8.349C30.1914 8.37236 30.2063 8.39772 30.2181 8.42456C30.331 8.61123 30.4396 8.80011 30.5371 8.99123C30.588 9.08678 30.639 9.18234 30.6877 9.28011C30.5415 8.98678 30.3886 8.69789 30.2247 8.41789C30.2113 8.39195 30.1965 8.36673 30.1804 8.34234L30.1738 8.349ZM1.58789 22.3134C2.78112 25.3772 4.88668 27.9977 7.61786 29.8179C6.99557 29.3994 6.40338 28.9375 5.84564 28.4357C5.26973 27.9202 4.7322 27.3632 4.23736 26.769C3.11951 25.4375 2.2247 23.9328 1.58789 22.3134ZM31.2725 22.4223C31.1352 22.766 30.9875 23.1038 30.8295 23.4357C30.9919 23.1038 31.1396 22.766 31.2725 22.4223ZM27.9275 27.6023C27.7059 27.8246 27.4844 28.0468 27.2629 28.2579L27.1964 28.3268C27.4519 28.0942 27.6971 27.8527 27.9319 27.6023H27.9275ZM26.1398 29.2023C25.8872 29.3964 25.6302 29.5831 25.3688 29.7623C25.6325 29.5868 25.8894 29.4001 26.142 29.2046L26.1398 29.2023ZM7.61786 29.8179C8.03478 30.0992 8.46585 30.3588 8.90936 30.5957C8.46631 30.3557 8.03581 30.0964 7.61786 29.8179ZM25.0986 29.9401C24.5626 30.2881 24.0063 30.6035 23.4327 30.8846C24.0072 30.6052 24.5636 30.2898 25.0986 29.9401Z" fill="#3B82F6"/>
<path d="M47.3844 18.758C48.3184 18.4813 49.1293 17.8914 49.6817 17.0869C50.2056 16.323 50.4782 15.4139 50.4614 14.4869C50.4751 13.8865 50.3702 13.2894 50.1527 12.7298C49.9352 12.1703 49.6095 11.6595 49.1943 11.2269C48.3481 10.338 47.1319 9.89355 45.5458 9.89355H40.0962V24.5847H42.7922V19.0802H44.5954L47.8651 24.5869H51.0773L47.3844 18.758ZM45.2423 16.6313H42.7855V12.4091H45.5391C45.83 12.3949 46.1207 12.4404 46.3934 12.5428C46.6661 12.6452 46.9152 12.8024 47.1252 13.0047C47.3119 13.2038 47.4572 13.4382 47.5527 13.6942C47.6481 13.9502 47.6918 14.2227 47.6813 14.4958C47.6929 14.7755 47.6459 15.0545 47.5432 15.3148C47.4406 15.5751 47.2846 15.8109 47.0854 16.0069C46.6497 16.4247 46.0353 16.6343 45.2423 16.6358V16.6313Z" fill="#212121"/>
<path d="M60.523 15.1643C59.4523 14.065 58.078 13.5147 56.4003 13.5132C54.7226 13.5117 53.3418 14.0621 52.2578 15.1643C51.7332 15.6897 51.3206 16.3166 51.0449 17.0069C50.7692 17.6972 50.6362 18.4364 50.6539 19.1799C50.6361 19.9292 50.769 20.6746 51.0445 21.3713C51.3201 22.0681 51.7327 22.7021 52.2578 23.2354C53.3403 24.3228 54.7212 24.8665 56.4003 24.8665C58.0795 24.8665 59.4537 24.3228 60.523 23.2354C61.0555 22.7065 61.4745 22.0738 61.7541 21.3763C62.0338 20.6789 62.1681 19.9314 62.149 19.1799C62.1657 18.4346 62.03 17.6938 61.7504 17.0032C61.4707 16.3126 61.053 15.6868 60.523 15.1643ZM58.64 21.5065C58.3545 21.8145 58.0075 22.0587 57.6216 22.2229C57.2356 22.3872 56.8195 22.468 56.4003 22.4599C55.9815 22.4653 55.5662 22.3834 55.1806 22.2193C54.7951 22.0552 54.4478 21.8125 54.1607 21.5065C53.8612 21.1997 53.6262 20.8357 53.4698 20.436C53.3134 20.0363 53.2387 19.6091 53.2502 19.1799C53.2395 18.7537 53.3146 18.3298 53.4711 17.9334C53.6275 17.5371 53.8621 17.1765 54.1607 16.8732C54.4478 16.5673 54.7951 16.3245 55.1806 16.1604C55.5662 15.9963 55.9815 15.9144 56.4003 15.9199C56.8195 15.9118 57.2356 15.9925 57.6216 16.1568C58.0075 16.321 58.3545 16.5652 58.64 16.8732C58.9373 17.1771 59.1706 17.538 59.3258 17.9343C59.4811 18.3306 59.5553 18.7542 59.5438 19.1799C59.5562 19.6086 59.4826 20.0355 59.3273 20.4352C59.172 20.8349 58.9383 21.1992 58.64 21.5065Z" fill="#212121"/>
<path d="M70.215 13.791L67.6585 21.0888L64.7455 13.791H61.7593L66.4556 24.4888L66.1898 25.0844C65.6611 26.2518 64.9603 26.8347 64.0875 26.8332C63.6111 26.817 63.1443 26.6948 62.7207 26.4755L62.3042 28.6621C62.8976 29.032 63.589 29.2126 64.2869 29.1799C65.2354 29.2008 66.1564 28.8592 66.8633 28.2244C67.5367 27.6021 68.1378 26.6214 68.6665 25.2821L72.7913 14.4088L73.0261 13.791H70.215Z" fill="#212121"/>
<path d="M78.954 19.14L82.3611 13.7911H79.4303L77.3502 17.2022L75.3875 13.7822H72.4146L72.7934 14.4L75.6444 19.0511L72.038 24.5867H75.0308L77.2904 20.9289L79.4813 24.5867H82.4542L78.954 19.14Z" fill="#212121"/>
<path d="M90.4888 13.7912V15.1645C90.0605 14.6499 89.524 14.2367 88.9177 13.9547C88.3114 13.6727 87.6503 13.5288 86.9821 13.5334C86.2689 13.5151 85.5598 13.6473 84.9007 13.9214C84.2417 14.1955 83.6474 14.6054 83.1563 15.1245C82.1535 16.1704 81.6514 17.509 81.6499 19.1401C81.6484 20.7712 82.1506 22.1297 83.1563 23.2156C83.6396 23.7475 84.2315 24.1685 84.8917 24.45C85.552 24.7314 86.2649 24.8668 86.9821 24.8467C87.6475 24.8584 88.3073 24.7217 88.9137 24.4465C89.5201 24.1714 90.0581 23.7646 90.4888 23.2556V24.589H92.9478V13.7912H90.4888ZM89.6559 21.5267C89.3578 21.8289 89.003 22.0687 88.6119 22.2324C88.2208 22.3961 87.8012 22.4804 87.3775 22.4804C86.9537 22.4804 86.5342 22.3961 86.1431 22.2324C85.752 22.0687 85.3972 21.8289 85.0991 21.5267C84.5203 20.8849 84.208 20.0454 84.2263 19.1801C84.2098 18.3211 84.5221 17.4884 85.0991 16.8534C85.3972 16.5513 85.752 16.3114 86.1431 16.1477C86.5342 15.984 86.9537 15.8997 87.3775 15.8997C87.8012 15.8997 88.2208 15.984 88.6119 16.1477C89.003 16.3114 89.3578 16.5513 89.6559 16.8534C90.2458 17.4813 90.5643 18.3176 90.542 19.1801C90.5659 20.0488 90.2476 20.892 89.6559 21.5267Z" fill="#212121"/>
<path d="M101.687 21.9222C101.143 22.2746 100.512 22.4678 99.8642 22.48C98.8216 22.48 98.2995 21.8304 98.298 20.5311V15.9778H101.905V13.7911H98.298V9.97559H95.7416V13.7911H93.9185V15.9778H95.7017V20.6311C95.7017 23.446 96.9305 24.8534 99.388 24.8534C100.493 24.8909 101.581 24.5801 102.5 23.9645L101.687 21.9222Z" fill="#212121"/>
</g>
<defs>
<clipPath id="clip0_5003_11267">
<rect width="102" height="32" fill="white" transform="translate(0.5 0.5)"/>
</clipPath>
</defs>
</svg>
