<svg xmlns="http://www.w3.org/2000/svg" xmlns:xlink="http://www.w3.org/1999/xlink" version="1.1" width="1000" height="1000" viewBox="0 0 1000 1000" xml:space="preserve">
<desc>Created with Fabric.js 3.5.0</desc>
<defs>
</defs>
<rect x="0" y="0" width="100%" height="100%" fill="#ffffff"/>
<g transform="matrix(6.1854 0 0 6.1843 68.5713 589.07)" id="948807" clip-path="url(#CLIPPATH_1)">
<clipPath id="CLIPPATH_1">
	<rect transform="matrix(1 0 0 1 65.1962 -16.9531)" id="clip0_5003_11594" x="-73.3125" y="-23" rx="0" ry="0" width="146.625" height="46"/>
</clipPath>
<path style="stroke: none; stroke-width: 0; stroke-dasharray: none; stroke-linecap: butt; stroke-dashoffset: 0; stroke-linejoin: miter; stroke-miterlimit: 4; is-custom-font: none; font-file-url: none; fill: rgb(44,101,140); fill-rule: nonzero; opacity: 1;" transform=" translate(-8.1163, -39.9531)" d="M 10.5505 42.1445 C 8.72824 40.933 7.08946 39.4644 5.6847 37.7841 C 5.68301 37.7806 5.68213 37.7768 5.68213 37.7729 C 5.68213 37.769 5.68301 37.7652 5.6847 37.7617 C 6.39604 38.6158 7.16874 39.4166 7.99661 40.1576 C 8.8004 40.8792 9.65382 41.5431 10.5505 42.1445 Z" stroke-linecap="round"/>
</g>
<g transform="matrix(6.1854 0 0 6.1843 89.3714 606.0795)" id="436188" clip-path="url(#CLIPPATH_2)">
<clipPath id="CLIPPATH_2">
	<rect transform="matrix(1 0 0 1 61.8334 -19.7035)" id="clip0_5003_11594" x="-73.3125" y="-23" rx="0" ry="0" width="146.625" height="46"/>
</clipPath>
<path style="stroke: none; stroke-width: 0; stroke-dasharray: none; stroke-linecap: butt; stroke-dashoffset: 0; stroke-linejoin: miter; stroke-miterlimit: 4; is-custom-font: none; font-file-url: none; fill: rgb(44,101,140); fill-rule: nonzero; opacity: 1;" transform=" translate(-11.4791, -42.7035)" d="M 12.4073 43.2626 C 11.7698 42.9221 11.1501 42.5489 10.5508 42.1445 C 11.1537 42.5449 11.7726 42.9176 12.4073 43.2626 Z" stroke-linecap="round"/>
</g>
<g transform="matrix(6.1854 0 0 6.1843 129.0995 546.4456)" id="519749" clip-path="url(#CLIPPATH_3)">
<clipPath id="CLIPPATH_3">
	<rect transform="matrix(1 0 0 1 55.4105 -10.0607)" id="clip0_5003_11594" x="-73.3125" y="-23" rx="0" ry="0" width="146.625" height="46"/>
</clipPath>
<path style="stroke: none; stroke-width: 0; stroke-dasharray: none; stroke-linecap: butt; stroke-dashoffset: 0; stroke-linejoin: miter; stroke-miterlimit: 4; is-custom-font: none; font-file-url: none; fill: rgb(26,86,219); fill-rule: nonzero; opacity: 1;" transform=" translate(-17.902, -33.0607)" d="M 28.2849 37.3746 C 28.2853 37.8702 28.2534 38.3653 28.1893 38.8568 C 28.1639 39.058 28.132 39.2561 28.0938 39.4541 C 25.2536 40.3511 22.2298 40.492 19.319 39.8631 C 16.4082 39.2342 13.7103 37.8571 11.4901 35.8668 C 9.84733 34.3975 8.49951 32.6269 7.51904 30.6503 C 8.93576 28.6775 10.9393 27.2058 13.242 26.4468 C 15.5446 25.6878 18.0279 25.6804 20.335 26.4257 C 22.6421 27.171 24.6543 28.6306 26.0827 30.595 C 27.511 32.5593 28.282 34.9272 28.2849 37.3586 V 37.3746 Z" stroke-linecap="round"/>
</g>
<g transform="matrix(6.1854 0 0 6.1843 122.4119 448.6671)" id="598907" clip-path="url(#CLIPPATH_4)">
<clipPath id="CLIPPATH_4">
	<rect transform="matrix(1 0 0 1 56.4917 5.75)" id="clip0_5003_11594" x="-73.3125" y="-23" rx="0" ry="0" width="146.625" height="46"/>
</clipPath>
<path style="stroke: none; stroke-width: 0; stroke-dasharray: none; stroke-linecap: butt; stroke-dashoffset: 0; stroke-linejoin: miter; stroke-miterlimit: 4; is-custom-font: none; font-file-url: none; fill: rgb(26,86,219); fill-rule: nonzero; opacity: 1;" transform=" translate(-16.8208, -17.25)" d="M 16.8208 23 C 19.9865 23 22.5528 20.4256 22.5528 17.25 C 22.5528 14.0744 19.9865 11.5 16.8208 11.5 C 13.6551 11.5 11.0887 14.0744 11.0887 17.25 C 11.0887 20.4256 13.6551 23 16.8208 23 Z" stroke-linecap="round"/>
</g>
<g transform="matrix(6.1854 0 0 6.1843 284.7165 416.2092)" id="759735" clip-path="url(#CLIPPATH_5)">
<clipPath id="CLIPPATH_5">
	<rect transform="matrix(1 0 0 1 30.2518 10.9985)" id="clip0_5003_11594" x="-73.3125" y="-23" rx="0" ry="0" width="146.625" height="46"/>
</clipPath>
<path style="stroke: none; stroke-width: 0; stroke-dasharray: none; stroke-linecap: butt; stroke-dashoffset: 0; stroke-linejoin: miter; stroke-miterlimit: 4; is-custom-font: none; font-file-url: none; fill: rgb(59,130,246); fill-rule: nonzero; opacity: 1;" transform=" translate(-43.0607, -12.0015)" d="M 42.7231 11.3914 C 42.8856 11.6598 43.0416 11.9313 43.1817 12.206 C 43.255 12.3434 43.3282 12.4807 43.3983 12.6213 C 43.1881 12.1996 42.9683 11.7843 42.7327 11.3818 L 42.7231 11.3914 Z" stroke-linecap="round"/>
</g>
<g transform="matrix(6.1854 0 0 6.1843 419.2607 490.8055)" id="439448" clip-path="url(#CLIPPATH_6)">
<clipPath id="CLIPPATH_6">
	<rect transform="matrix(1 0 0 1 8.4999 -1.0637)" id="clip0_5003_11594" x="-73.3125" y="-23" rx="0" ry="0" width="146.625" height="46"/>
</clipPath>
<path style="stroke: none; stroke-width: 0; stroke-dasharray: none; stroke-linecap: butt; stroke-dashoffset: 0; stroke-linejoin: miter; stroke-miterlimit: 4; is-custom-font: none; font-file-url: none; fill: rgb(255,255,255); fill-rule: nonzero; opacity: 1;" transform=" translate(-64.8126, -24.0637)" d="M 67.3968 26.2456 C 68.7393 25.8479 69.9051 24.9999 70.699 23.8433 C 71.4522 22.7453 71.8441 21.4385 71.82 20.1058 C 71.8396 19.2428 71.6887 18.3844 71.3761 17.5801 C 71.0635 16.7758 70.5953 16.0415 69.9985 15.4196 C 68.782 14.1418 67.0337 13.5029 64.7537 13.5029 H 56.9199 V 34.6214 H 60.7954 V 26.7088 H 63.3875 L 68.0878 34.6246 H 72.7053 L 67.3968 26.2456 Z M 64.3174 23.1885 H 60.7858 V 17.119 H 64.7441 C 65.1622 17.0986 65.5801 17.164 65.9722 17.3112 C 66.3642 17.4584 66.7222 17.6843 67.0242 17.9752 C 67.2925 18.2614 67.5014 18.5983 67.6386 18.9663 C 67.7758 19.3343 67.8387 19.726 67.8235 20.1186 C 67.8402 20.5207 67.7726 20.9218 67.625 21.2959 C 67.4775 21.6701 67.2532 22.0091 66.9669 22.2908 C 66.3406 22.8914 65.4574 23.1927 64.3174 23.1949 V 23.1885 Z" stroke-linecap="round"/>
</g>
<g transform="matrix(6.1854 0 0 6.1843 515.4194 508.1372)" id="294603" clip-path="url(#CLIPPATH_7)">
<clipPath id="CLIPPATH_7">
	<rect transform="matrix(1 0 0 1 -7.0462 -3.8663)" id="clip0_5003_11594" x="-73.3125" y="-23" rx="0" ry="0" width="146.625" height="46"/>
</clipPath>
<path style="stroke: none; stroke-width: 0; stroke-dasharray: none; stroke-linecap: butt; stroke-dashoffset: 0; stroke-linejoin: miter; stroke-miterlimit: 4; is-custom-font: none; font-file-url: none; fill: rgb(255,255,255); fill-rule: nonzero; opacity: 1;" transform=" translate(-80.3587, -26.8663)" d="M 86.2833 21.0795 C 84.7441 19.4993 82.7687 18.7082 80.357 18.7061 C 77.9453 18.7039 75.9603 19.4951 74.4021 21.0795 C 73.648 21.8348 73.0548 22.736 72.6585 23.7283 C 72.2622 24.7205 72.071 25.7832 72.0965 26.8519 C 72.0709 27.9291 72.2619 29.0005 72.658 30.0021 C 73.0541 31.0037 73.6472 31.9151 74.4021 32.6818 C 75.9582 34.2449 77.9432 35.0265 80.357 35.0265 C 82.7708 35.0265 84.7462 34.2449 86.2833 32.6818 C 87.0488 31.9214 87.6511 31.0119 88.0531 30.0093 C 88.455 29.0067 88.6482 27.9322 88.6206 26.8519 C 88.6447 25.7806 88.4496 24.7158 88.0476 23.723 C 87.6456 22.7302 87.0452 21.8306 86.2833 21.0795 Z M 83.5765 30.1965 C 83.1662 30.6393 82.6673 30.9902 82.1125 31.2263 C 81.5577 31.4625 80.9595 31.5785 80.357 31.5669 C 79.755 31.5748 79.1579 31.457 78.6037 31.2211 C 78.0494 30.9852 77.5502 30.6363 77.1375 30.1965 C 76.7069 29.7555 76.3692 29.2321 76.1444 28.6576 C 75.9195 28.083 75.8122 27.4689 75.8287 26.8519 C 75.8133 26.2393 75.9213 25.6299 76.1462 25.0602 C 76.3711 24.4904 76.7082 23.972 77.1375 23.5361 C 77.5502 23.0963 78.0494 22.7474 78.6037 22.5114 C 79.1579 22.2755 79.755 22.1578 80.357 22.1656 C 80.9595 22.154 81.5577 22.27 82.1125 22.5062 C 82.6673 22.7423 83.1662 23.0933 83.5765 23.5361 C 84.0039 23.9729 84.3392 24.4917 84.5624 25.0614 C 84.7856 25.6311 84.8922 26.24 84.8757 26.8519 C 84.8935 27.4683 84.7877 28.0819 84.5645 28.6565 C 84.3413 29.231 84.0053 29.7547 83.5765 30.1965 Z" stroke-linecap="round"/>
</g>
<g transform="matrix(6.1854 0 0 6.1843 613.1492 528.5619)" id="760680" clip-path="url(#CLIPPATH_8)">
<clipPath id="CLIPPATH_8">
	<rect transform="matrix(1 0 0 1 -22.8462 -7.169)" id="clip0_5003_11594" x="-73.3125" y="-23" rx="0" ry="0" width="146.625" height="46"/>
</clipPath>
<path style="stroke: none; stroke-width: 0; stroke-dasharray: none; stroke-linecap: butt; stroke-dashoffset: 0; stroke-linejoin: miter; stroke-miterlimit: 4; is-custom-font: none; font-file-url: none; fill: rgb(255,255,255); fill-rule: nonzero; opacity: 1;" transform=" translate(-96.1587, -30.169)" d="M 100.216 19.1055 L 96.5407 29.596 L 92.3532 19.1055 H 88.0605 L 94.8116 34.4835 L 94.4294 35.3396 C 93.6694 37.0178 92.6621 37.8558 91.4074 37.8537 C 90.7226 37.8304 90.0515 37.6547 89.4426 37.3394 L 88.8439 40.4827 C 89.6969 41.0145 90.6908 41.274 91.694 41.227 C 93.0575 41.257 94.3814 40.766 95.3975 39.8534 C 96.3656 38.9589 97.2296 37.5491 97.9897 35.6239 L 103.919 19.9935 L 104.257 19.1055 H 100.216 Z" stroke-linecap="round"/>
</g>
<g transform="matrix(6.1854 0 0 6.1843 700.7577 508.089)" id="867645" clip-path="url(#CLIPPATH_9)">
<clipPath id="CLIPPATH_9">
	<rect transform="matrix(1 0 0 1 -37.01 -3.8585)" id="clip0_5003_11594" x="-73.3125" y="-23" rx="0" ry="0" width="146.625" height="46"/>
</clipPath>
<path style="stroke: none; stroke-width: 0; stroke-dasharray: none; stroke-linecap: butt; stroke-dashoffset: 0; stroke-linejoin: miter; stroke-miterlimit: 4; is-custom-font: none; font-file-url: none; fill: rgb(255,255,255); fill-rule: nonzero; opacity: 1;" transform=" translate(-110.3225, -26.8585)" d="M 112.778 26.7946 L 117.675 19.1056 H 113.462 L 110.472 24.009 L 107.651 19.0928 H 103.377 L 103.922 19.9808 L 108.02 26.6668 L 102.836 34.6242 H 107.138 L 110.386 29.3661 L 113.536 34.6242 H 117.809 L 112.778 26.7946 Z" stroke-linecap="round"/>
</g>
<g transform="matrix(6.1854 0 0 6.1843 790.1429 508.1444)" id="99668" clip-path="url(#CLIPPATH_10)">
<clipPath id="CLIPPATH_10">
	<rect transform="matrix(1 0 0 1 -51.461 -3.8674)" id="clip0_5003_11594" x="-73.3125" y="-23" rx="0" ry="0" width="146.625" height="46"/>
</clipPath>
<path style="stroke: none; stroke-width: 0; stroke-dasharray: none; stroke-linecap: butt; stroke-dashoffset: 0; stroke-linejoin: miter; stroke-miterlimit: 4; is-custom-font: none; font-file-url: none; fill: rgb(255,255,255); fill-rule: nonzero; opacity: 1;" transform=" translate(-124.7735, -26.8674)" d="M 129.359 19.1063 V 21.0805 C 128.744 20.3407 127.972 19.7468 127.101 19.3414 C 126.229 18.9361 125.279 18.7292 124.318 18.7358 C 123.293 18.7095 122.274 18.8996 121.326 19.2936 C 120.379 19.6876 119.525 20.2768 118.819 21.023 C 117.377 22.5265 116.655 24.4507 116.653 26.7954 C 116.651 29.1401 117.373 31.093 118.819 32.654 C 119.513 33.4185 120.364 34.0237 121.313 34.4283 C 122.263 34.833 123.287 35.0275 124.318 34.9987 C 125.275 35.0154 126.223 34.8189 127.095 34.4234 C 127.967 34.0279 128.74 33.4432 129.359 32.7115 V 34.6282 H 132.894 V 19.1063 H 129.359 Z M 128.162 30.2262 C 127.733 30.6605 127.223 31.0053 126.661 31.2407 C 126.099 31.476 125.496 31.5971 124.887 31.5971 C 124.278 31.5971 123.674 31.476 123.112 31.2407 C 122.55 31.0053 122.04 30.6605 121.612 30.2262 C 120.779 29.3036 120.331 28.0967 120.357 26.8529 C 120.333 25.618 120.782 24.4211 121.612 23.5083 C 122.04 23.074 122.55 22.7292 123.112 22.4938 C 123.674 22.2585 124.278 22.1374 124.887 22.1374 C 125.496 22.1374 126.099 22.2585 126.661 22.4938 C 127.223 22.7292 127.733 23.074 128.162 23.5083 C 129.01 24.4108 129.468 25.6131 129.436 26.8529 C 129.47 28.1017 129.012 29.3137 128.162 30.2262 Z" stroke-linecap="round"/>
</g>
<g transform="matrix(6.1854 0 0 6.1843 887.1547 492.3697)" id="116686" clip-path="url(#CLIPPATH_11)">
<clipPath id="CLIPPATH_11">
	<rect transform="matrix(1 0 0 1 -67.145 -1.3167)" id="clip0_5003_11594" x="-73.3125" y="-23" rx="0" ry="0" width="146.625" height="46"/>
</clipPath>
<path style="stroke: none; stroke-width: 0; stroke-dasharray: none; stroke-linecap: butt; stroke-dashoffset: 0; stroke-linejoin: miter; stroke-miterlimit: 4; is-custom-font: none; font-file-url: none; fill: rgb(255,255,255); fill-rule: nonzero; opacity: 1;" transform=" translate(-140.4575, -24.3167)" d="M 145.457 30.7944 C 144.675 31.301 143.767 31.5787 142.836 31.5962 C 141.337 31.5962 140.587 30.6624 140.585 28.7947 V 22.2493 H 145.769 V 19.106 H 140.585 V 13.6211 H 136.91 V 19.106 H 134.289 V 22.2493 H 136.853 V 28.9385 C 136.853 32.9848 138.619 35.0079 142.151 35.0079 C 143.739 35.0619 145.304 34.615 146.626 33.7301 L 145.457 30.7944 Z" stroke-linecap="round"/>
</g>
<g transform="matrix(1 0 0 1 163.1422 488.7511)" id="218839">
<g style="">
		<g transform="matrix(6.1854 0 0 6.1843 -0.0359 -6.1138)" id="40835" clip-path="url(#CLIPPATH_12)">
<clipPath id="CLIPPATH_12">
	<rect transform="matrix(1 0 0 1 50.4127 0.9966)" id="clip0_5003_11594" x="-73.3125" y="-23" rx="0" ry="0" width="146.625" height="46"/>
</clipPath>
<path style="stroke: none; stroke-width: 1; stroke-dasharray: none; stroke-linecap: butt; stroke-dashoffset: 0; stroke-linejoin: miter; stroke-miterlimit: 4; is-custom-font: none; font-file-url: none; fill: rgb(59,130,246); fill-rule: nonzero; opacity: 1;" transform=" translate(-22.8998, -22.0034)" d="M 19.0402 0.329102 C 18.6645 0.39299 18.2887 0.466463 17.9193 0.552713 C 18.2887 0.469657 18.6613 0.396185 19.0402 0.329102 Z M 17.1805 0.731602 C 16.6901 0.856185 16.2061 0.999935 15.7284 1.15966 C 16.2061 1.00313 16.6837 0.859379 17.1805 0.731602 Z M 15.0183 1.40882 C 14.547 1.58132 14.0852 1.7666 13.6299 1.97424 C 14.0852 1.77299 14.5502 1.58452 15.0183 1.40882 Z M 32.7843 2.2298 C 35.1282 3.35661 37.2645 4.87421 39.1023 6.71799 C 37.2622 4.87696 35.1223 3.36451 32.7748 2.24577 L 32.7843 2.2298 Z M 42.6562 11.2829 C 42.6816 11.3164 42.7029 11.3529 42.7198 11.3915 C 42.8822 11.6598 43.0383 11.9313 43.1784 12.206 C 43.2516 12.3434 43.3249 12.4808 43.3949 12.6213 C 43.1848 12.1997 42.965 11.7844 42.7294 11.3819 C 42.7101 11.3446 42.6888 11.3083 42.6657 11.2733 L 42.6562 11.2829 Z M 1.56396 31.3567 C 3.27924 35.7609 6.30597 39.5278 10.232 42.1444 C 9.33751 41.5427 8.48623 40.8788 7.68448 40.1574 C 6.85662 39.4165 6.08391 38.6157 5.37257 37.7616 C 3.76567 35.8476 2.47938 33.6845 1.56396 31.3567 Z M 44.2356 31.5133 C 44.0382 32.0073 43.8259 32.4929 43.5988 32.9699 C 43.8323 32.4929 44.0446 32.0073 44.2356 31.5133 Z M 39.4271 38.9595 C 39.1087 39.279 38.7902 39.5984 38.4718 39.9019 L 38.3763 40.0009 C 38.7435 39.6665 39.0959 39.3194 39.4335 38.9595 H 39.4271 Z M 38.3412 40.0265 C 37.8667 40.4577 37.3859 40.873 36.8605 41.2627 L 36.9846 41.3873 L 38.3412 40.0265 Z M 36.8509 41.2595 C 36.4879 41.5385 36.1185 41.8068 35.7427 42.0645 C 36.1217 41.8122 36.4911 41.5438 36.8541 41.2627 L 36.8509 41.2595 Z M 10.232 42.1444 C 10.8314 42.5488 11.451 42.9219 12.0886 43.2624 C 11.4517 42.9174 10.8328 42.5448 10.232 42.1444 Z M 35.3606 42.3201 C 34.5901 42.8203 33.7905 43.2737 32.9659 43.6777 C 33.7918 43.2761 34.5916 42.8227 35.3606 42.3201 Z" stroke-linecap="round"/>
</g>
		<g transform="matrix(6.1854 0 0 6.1843 -0.0359 -6.1138)" id="544813" clip-path="url(#CLIPPATH_13)">
<clipPath id="CLIPPATH_13">
	<rect transform="matrix(1 0 0 1 50.4127 0.9966)" id="clip0_5003_11594" x="-73.3125" y="-23" rx="0" ry="0" width="146.625" height="46"/>
</clipPath>
<path style="stroke: none; stroke-width: 1; stroke-dasharray: none; stroke-linecap: butt; stroke-dashoffset: 0; stroke-linejoin: miter; stroke-miterlimit: 4; is-custom-font: none; font-file-url: none; fill: rgb(59,130,246); fill-rule: nonzero; opacity: 1;" transform=" translate(-22.8998, -22.0034)" d="M 19.0402 0.329102 C 18.6645 0.39299 18.2887 0.466463 17.9193 0.552713 C 18.2887 0.469657 18.6613 0.396185 19.0402 0.329102 Z M 17.1805 0.731602 C 16.6901 0.856185 16.2061 0.999935 15.7284 1.15966 C 16.2061 1.00313 16.6837 0.859379 17.1805 0.731602 Z M 15.0183 1.40882 C 14.547 1.58132 14.0852 1.7666 13.6299 1.97424 C 14.0852 1.77299 14.5502 1.58452 15.0183 1.40882 Z M 32.7843 2.2298 C 35.1282 3.35661 37.2645 4.87421 39.1023 6.71799 C 37.2622 4.87696 35.1223 3.36451 32.7748 2.24577 L 32.7843 2.2298 Z M 42.6562 11.2829 C 42.6816 11.3164 42.7029 11.3529 42.7198 11.3915 C 42.8822 11.6598 43.0383 11.9313 43.1784 12.206 C 43.2516 12.3434 43.3249 12.4808 43.3949 12.6213 C 43.1848 12.1997 42.965 11.7844 42.7294 11.3819 C 42.7101 11.3446 42.6888 11.3083 42.6657 11.2733 L 42.6562 11.2829 Z M 1.56396 31.3567 C 3.27924 35.7609 6.30597 39.5278 10.232 42.1444 C 9.33751 41.5427 8.48623 40.8788 7.68448 40.1574 C 6.85662 39.4165 6.08391 38.6157 5.37257 37.7616 C 3.76567 35.8476 2.47938 33.6845 1.56396 31.3567 Z M 44.2356 31.5133 C 44.0382 32.0073 43.8259 32.4929 43.5988 32.9699 C 43.8323 32.4929 44.0446 32.0073 44.2356 31.5133 Z M 39.4271 38.9595 C 39.1087 39.279 38.7902 39.5984 38.4718 39.9019 L 38.3763 40.0009 C 38.7435 39.6665 39.0959 39.3194 39.4335 38.9595 H 39.4271 Z M 36.8573 41.2595 C 36.4942 41.5385 36.1248 41.8068 35.7491 42.0645 C 36.128 41.8122 36.4974 41.5438 36.8605 41.2627 L 36.8573 41.2595 Z M 10.232 42.1444 C 10.8314 42.5488 11.451 42.9219 12.0886 43.2624 C 11.4517 42.9174 10.8328 42.5448 10.232 42.1444 Z M 35.3606 42.3201 C 34.5901 42.8203 33.7905 43.2737 32.9659 43.6777 C 33.7918 43.2761 34.5916 42.8227 35.3606 42.3201 Z" stroke-linecap="round"/>
</g>
		<g transform="matrix(6.1854 0 0 6.1843 0 0)" id="400869" clip-path="url(#CLIPPATH_14)">
<clipPath id="CLIPPATH_14">
	<rect transform="matrix(1 0 0 1 50.4069 0.008)" id="clip0_5003_11594" x="-73.3125" y="-23" rx="0" ry="0" width="146.625" height="46"/>
</clipPath>
<path style="stroke: none; stroke-width: 1; stroke-dasharray: none; stroke-linecap: butt; stroke-dashoffset: 0; stroke-linejoin: miter; stroke-miterlimit: 4; is-custom-font: none; font-file-url: none; fill: rgb(59,130,246); fill-rule: nonzero; opacity: 1;" transform=" translate(-22.9056, -22.992)" d="M 22.9294 0 C 22.214 0 21.5039 0.0330091 20.799 0.0990276 C 20.643 0.0990276 20.4806 0.127778 20.3341 0.146944 L 19.9806 0.188472 L 19.5635 0.249167 C 19.3883 0.271528 19.2132 0.300278 19.0412 0.329028 C 18.6623 0.396111 18.2897 0.469583 17.9203 0.552639 L 17.5477 0.638889 L 17.1815 0.731528 C 16.6911 0.859306 16.2071 1.00306 15.7294 1.15958 C 15.4906 1.23944 15.2549 1.3225 15.0193 1.40875 C 14.5512 1.58444 14.0862 1.77292 13.6308 1.97417 C 13.3124 2.12111 12.994 2.27444 12.6755 2.43736 L 12.2711 2.64181 C 12.0864 2.73764 11.9081 2.83667 11.7265 2.93889 C 11.545 3.04111 11.4081 3.11139 11.2712 3.20083 C 11.1342 3.29028 10.9846 3.37653 10.8413 3.46597 C 10.5228 3.66403 10.2044 3.87167 9.88593 4.08569 L 9.63435 4.26139 C 9.43373 4.40514 9.2363 4.55208 9.03886 4.70222 L 8.87008 4.83319 C 8.1952 5.35917 7.54989 5.92225 6.93712 6.51986 C 6.74924 6.70194 6.56454 6.89042 6.38303 7.07889 C 6.20151 7.26736 6.04229 7.44306 5.87351 7.62833 L 5.82893 7.67944 C 5.70155 7.82 5.57736 7.96375 5.45635 8.1075 L 5.33216 8.25444 C 5.16656 8.4525 5.01371 8.65375 4.84493 8.86139 C 4.67616 9.06903 4.59336 9.18083 4.47235 9.35653 C 4.44369 9.39167 4.41503 9.43 4.38956 9.46833 C 4.34744 9.52162 4.30812 9.57707 4.27173 9.63444 C 4.15072 9.80056 4.0329 9.95389 3.91826 10.1392 L 3.8896 10.1807 C 3.77496 10.3532 3.66032 10.5289 3.54886 10.7078 L 3.48836 10.8004 L 3.44377 10.8739 L 3.4183 10.9154 C 3.30366 11.1039 3.18902 11.2892 3.08075 11.4808 C 2.97248 11.6725 2.8642 11.8578 2.7623 12.0494 L 2.68587 12.1964 L 2.44704 12.6564 C 2.36743 12.8097 2.291 12.9758 2.21776 13.1228 C 2.1063 13.356 1.99485 13.5924 1.89931 13.8319 C 1.84518 13.9565 1.79423 14.0811 1.74328 14.2057 C 1.62545 14.49 1.51081 14.7775 1.40254 15.0682 C 1.37706 15.1417 1.35477 15.2119 1.3293 15.2822 L 1.14778 15.8029 C 1.09046 15.9754 1.03633 16.1511 0.982192 16.3268 C 0.928056 16.5025 0.905765 16.5824 0.870736 16.7101 C 0.797493 16.9657 0.727435 17.2244 0.663746 17.4864 C 0.631902 17.6142 0.603242 17.7451 0.571397 17.8761 L 0.488601 18.2946 C 0.463126 18.4256 0.434466 18.5565 0.40899 18.6907 C 0.383514 18.8217 0.361223 18.9558 0.338932 19.09 C 0.316641 19.2242 0.29435 19.3583 0.272059 19.4925 C 0.249767 19.6362 0.230661 19.7768 0.211554 19.9206 C 0.192447 20.0643 0.170156 20.1761 0.170156 20.3007 C 0.170156 20.339 0.170156 20.3806 0.154234 20.4221 C 0.154234 20.5467 0.125574 20.6744 0.11602 20.799 C 0.0873601 21.0897 0.0650689 21.3804 0.0491466 21.6743 C 0.0491466 21.7797 0.0491466 21.8851 0.0491466 21.9938 C 0.0491466 22.3132 0.0268555 22.6646 0.0268555 23.0032 C 0.0268555 23.2172 0.0268555 23.4281 0.0268555 23.6421 C 0.0268555 23.8561 0.0268555 24.0637 0.0523312 24.281 C 0.0523312 24.4439 0.0714378 24.6004 0.0841757 24.7633 C 0.0841757 24.8719 0.0841756 24.9806 0.109651 25.0828 C 0.135127 25.185 0.138311 25.3735 0.154234 25.5204 C 0.152677 25.5289 0.152677 25.5375 0.154234 25.546 C 0.17334 25.7344 0.195632 25.9261 0.224292 26.1146 C 0.222908 26.1327 0.222908 26.1508 0.224292 26.1689 C 0.249767 26.3669 0.281612 26.5618 0.313456 26.7599 C 0.345301 26.9579 0.383514 27.1656 0.421728 27.3668 C 0.459941 27.5681 0.501339 27.7693 0.545921 27.9706 C 0.631902 28.3699 0.73062 28.766 0.838891 29.1557 C 0.947163 29.5454 1.07136 29.9543 1.20192 30.3472 C 1.33248 30.7401 1.44394 31.0372 1.56495 31.3567 C 2.47995 33.6784 3.76401 35.836 5.36719 37.7456 C 6.07853 38.5997 6.85123 39.4004 7.6791 40.1414 C 8.48084 40.8628 9.33213 41.5267 10.2267 42.1283 C 10.8296 42.5287 11.4484 42.9014 12.0832 43.2464 L 12.5641 43.4987 L 13.0545 43.7415 C 13.2169 43.8214 13.3729 43.8981 13.548 43.9715 L 13.6627 44.0226 C 13.7901 44.0801 13.9174 44.1376 14.048 44.1888 L 14.1722 44.2399 L 14.4747 44.3644 L 14.5543 44.3964 L 15.067 44.5912 L 15.1689 44.6296 L 15.653 44.7989 L 15.9714 44.9011 L 16.3599 45.0225 C 16.6051 45.096 16.8535 45.1663 17.1019 45.2333 L 17.6114 45.3611 C 17.7834 45.4026 17.9521 45.441 18.1241 45.4761 C 18.2961 45.5112 18.4712 45.5496 18.6432 45.5815 C 18.9616 45.6454 19.3024 45.7029 19.6367 45.7476 C 20.7251 45.9057 21.8234 45.9847 22.9231 45.984 H 23.1619 H 23.7256 C 23.9676 45.984 24.2096 45.9649 24.4484 45.9489 C 24.7669 45.9297 25.0853 45.901 25.4038 45.8658 C 25.7222 45.8307 26.1107 45.7796 26.461 45.7285 C 26.668 45.6965 26.8718 45.6614 27.0756 45.6231 L 27.4832 45.5432 L 27.6966 45.4985 L 28.1615 45.4122 C 28.48 45.3419 28.7697 45.2621 29.0691 45.179 L 29.5213 45.0481 L 29.9639 44.9075 L 30.4065 44.7606 L 30.8428 44.604 C 31.1326 44.4986 31.4192 44.3836 31.7026 44.2846 C 31.986 44.1856 32.2726 44.0386 32.5529 43.9076 L 32.9668 43.7096 C 33.7915 43.3055 34.5911 42.8522 35.3616 42.3519 L 35.7437 42.0996 C 36.1195 41.8398 36.4889 41.5714 36.8519 41.2946 C 37.3646 40.9049 37.8582 40.4896 38.3327 40.0583 L 38.3613 40.0328 L 38.4568 39.9338 C 38.7753 39.6303 39.0937 39.314 39.4122 38.9914 C 39.4918 38.9115 39.5682 38.8317 39.6383 38.7518 L 39.7179 38.6688 L 39.7561 38.6272 L 39.9121 38.4547 C 40.0427 38.311 40.1701 38.164 40.2975 38.0139 H 40.3166 C 40.4917 37.8031 40.6669 37.5922 40.8388 37.375 L 40.877 37.3271 C 41.3515 36.7265 41.7942 36.1004 42.2081 35.4551 C 42.2655 35.3689 42.3196 35.2826 42.3737 35.1964 C 42.4756 35.0335 42.5743 34.8769 42.6699 34.7013 C 42.7654 34.5256 42.8259 34.4361 42.8992 34.3019 L 43.017 34.0943 C 43.0573 34.024 43.0955 33.9538 43.1316 33.8835 C 43.2845 33.6024 43.4278 33.3181 43.5679 33.0306 C 43.7972 32.5535 44.0095 32.068 44.2048 31.5739 C 44.2717 31.4078 44.3354 31.2544 44.3959 31.0756 C 44.4564 30.8967 44.5105 30.7561 44.5646 30.6124 L 44.5837 30.5517 C 44.6379 30.3951 44.692 30.2322 44.743 30.0725 C 44.7971 29.9032 44.848 29.7339 44.899 29.5646 C 44.934 29.4464 44.9691 29.325 45.0009 29.2068 C 45.0327 29.0886 45.0678 28.9576 45.0996 28.8331 C 45.1315 28.7085 45.1792 28.5136 45.2143 28.3667 C 45.2304 28.311 45.2431 28.2545 45.2525 28.1974 C 45.278 28.0856 45.3034 27.9769 45.3257 27.8779 C 45.3799 27.6288 45.4308 27.3764 45.4722 27.124 C 45.4945 27.0122 45.5104 26.9036 45.5295 26.8046 C 45.5709 26.5682 45.6059 26.3286 45.6346 26.089 C 45.6633 25.8494 45.6983 25.5651 45.7238 25.3 C 45.7492 25.0349 45.7684 24.7665 45.7843 24.5014 L 45.2493 24.9678 L 35.5558 34.6917 L 35.5271 34.7236 C 35.2087 35.0431 34.8903 35.3625 34.5718 35.6819 L 34.2374 35.9822 C 33.9572 36.2282 33.6674 36.4678 33.3681 36.6978 C 30.7455 38.7123 27.6001 39.9265 24.3078 40.1953 C 21.0156 40.464 17.7158 39.7758 14.8031 38.2131 C 11.8904 36.6503 9.48801 34.2791 7.88318 31.383 C 6.27834 28.4869 5.53898 25.1883 5.7535 21.8818 C 5.96802 18.5753 7.12734 15.4007 9.09283 12.7377 C 11.0583 10.0746 13.7468 8.03577 16.8369 6.86492 C 19.9269 5.69406 23.2878 5.44075 26.5175 6.13526 C 29.7473 6.82977 32.7094 8.44272 35.0495 10.7812 L 38.7371 7.07889 L 39.1033 6.71153 C 37.2643 4.87344 35.1281 3.36129 32.7853 2.23931 C 32.6293 2.16264 32.4669 2.08917 32.3109 2.01889 L 31.7982 1.79528 C 31.4065 1.62917 31.0084 1.47583 30.604 1.33208 C 30.3917 1.25542 30.1794 1.18194 29.9671 1.11167 C 29.7346 1.03819 29.499 0.964722 29.2633 0.897639 L 28.8876 0.792222 L 28.4895 0.69 L 28.1074 0.597361 C 27.5947 0.479167 27.0756 0.376944 26.5534 0.293889 L 26.1649 0.233194 C 25.9483 0.20125 25.7318 0.1725 25.528 0.150139 C 25.1649 0.108611 24.7987 0.0766667 24.4325 0.0543056 L 23.958 0.0287499 L 23.4167 0.00638888 H 22.9199 L 22.9294 0 Z" stroke-linecap="round"/>
</g>
		<g transform="matrix(6.1854 0 0 6.1843 76.1421 -18.0736)" id="121392" clip-path="url(#CLIPPATH_15)">
<clipPath id="CLIPPATH_15">
	<rect transform="matrix(1 0 0 1 38.0969 2.9305)" id="clip0_5003_11594" x="-73.3125" y="-23" rx="0" ry="0" width="146.625" height="46"/>
</clipPath>
<path style="stroke: none; stroke-width: 1; stroke-dasharray: none; stroke-linecap: butt; stroke-dashoffset: 0; stroke-linejoin: miter; stroke-miterlimit: 4; is-custom-font: none; font-file-url: none; fill: rgb(59,130,246); fill-rule: nonzero; opacity: 1;" transform=" translate(-35.2156, -20.0695)" d="M 42.7134 11.4014 L 33.4785 20.6653 L 29.412 16.6115 L 25.3613 20.678 L 29.4151 24.7446 L 33.3925 28.7376 L 37.4432 24.6711 L 45.0699 17.0236 C 44.9489 16.5668 44.812 16.1196 44.6655 15.6755 C 44.5604 15.3561 44.4458 15.0366 44.3248 14.7364 C 44.2356 14.5064 44.1432 14.2796 44.0477 14.0528 C 44.0159 13.9825 43.9872 13.9122 43.9585 13.8419 C 43.8407 13.5768 43.7229 13.3116 43.5987 13.0529 C 43.5318 12.9123 43.4618 12.7718 43.3917 12.6312 C 43.3217 12.4907 43.2484 12.3533 43.1752 12.216 C 43.0287 11.9412 42.879 11.6697 42.7166 11.4014 H 42.7134 Z" stroke-linecap="round"/>
</g>
		<g transform="matrix(6.1854 0 0 6.1843 -0.0359 -6.1138)" id="777957" clip-path="url(#CLIPPATH_16)">
<clipPath id="CLIPPATH_16">
	<rect transform="matrix(1 0 0 1 50.4127 0.9966)" id="clip0_5003_11594" x="-73.3125" y="-23" rx="0" ry="0" width="146.625" height="46"/>
</clipPath>
<path style="stroke: none; stroke-width: 1; stroke-dasharray: none; stroke-linecap: butt; stroke-dashoffset: 0; stroke-linejoin: miter; stroke-miterlimit: 4; is-custom-font: none; font-file-url: none; fill: rgb(59,130,246); fill-rule: nonzero; opacity: 1;" transform=" translate(-22.8998, -22.0034)" d="M 19.0402 0.329102 C 18.6645 0.39299 18.2887 0.466463 17.9193 0.552713 C 18.2887 0.469657 18.6613 0.396185 19.0402 0.329102 Z M 17.1805 0.731602 C 16.6901 0.856185 16.2061 0.999935 15.7284 1.15966 C 16.2061 1.00313 16.6837 0.859379 17.1805 0.731602 Z M 15.0183 1.40882 C 14.547 1.58132 14.0852 1.7666 13.6299 1.97424 C 14.0852 1.77299 14.5502 1.58452 15.0183 1.40882 Z M 32.7843 2.2298 C 35.1282 3.35661 37.2645 4.87421 39.1023 6.71799 C 37.2622 4.87696 35.1223 3.36451 32.7748 2.24577 L 32.7843 2.2298 Z M 42.6562 11.2829 C 42.6816 11.3164 42.7029 11.3529 42.7198 11.3915 C 42.8822 11.6598 43.0383 11.9313 43.1784 12.206 C 43.2516 12.3434 43.3249 12.4808 43.3949 12.6213 C 43.1848 12.1997 42.965 11.7844 42.7294 11.3819 C 42.7101 11.3446 42.6888 11.3083 42.6657 11.2733 L 42.6562 11.2829 Z M 1.56396 31.3567 C 3.27924 35.7609 6.30597 39.5278 10.232 42.1444 C 9.33751 41.5427 8.48623 40.8788 7.68448 40.1574 C 6.85662 39.4165 6.08391 38.6157 5.37257 37.7616 C 3.76567 35.8476 2.47938 33.6845 1.56396 31.3567 Z M 44.2356 31.5133 C 44.0382 32.0073 43.8259 32.4929 43.5988 32.9699 C 43.8323 32.4929 44.0446 32.0073 44.2356 31.5133 Z M 39.4271 38.9595 C 39.1087 39.279 38.7902 39.5984 38.4718 39.9019 L 38.3763 40.0009 C 38.7435 39.6665 39.0959 39.3194 39.4335 38.9595 H 39.4271 Z M 36.8573 41.2595 C 36.4942 41.5385 36.1248 41.8068 35.7491 42.0645 C 36.128 41.8122 36.4974 41.5438 36.8605 41.2627 L 36.8573 41.2595 Z M 10.232 42.1444 C 10.8314 42.5488 11.451 42.9219 12.0886 43.2624 C 11.4517 42.9174 10.8328 42.5448 10.232 42.1444 Z M 35.3606 42.3201 C 34.5901 42.8203 33.7905 43.2737 32.9659 43.6777 C 33.7918 43.2761 34.5916 42.8227 35.3606 42.3201 Z" stroke-linecap="round"/>
</g>
</g>
</g>
</svg>